<svg width="100" height="92" viewBox="0 0 100 92" fill="none" xmlns="http://www.w3.org/2000/svg">
<path d="M66.6546 0V21.579L33.3092 55.4731L31.1369 57.6788C27.5887 61.2814 22.9182 63.0827 18.2476 63.0827C13.5771 63.0827 8.90659 61.2814 5.35844 57.6788C1.88269 54.1864 0 49.5177 0 44.5917C0 39.6289 1.88269 34.9969 5.35844 31.5046L33.3454 3.0512L36.0608 0.294092V21.8731L33.3454 24.6302L15.9667 42.2757C14.6995 43.5624 14.6995 45.621 15.9667 46.9077C16.5822 47.5326 17.3787 47.8635 18.2476 47.8635C19.1166 47.8635 19.9131 47.5326 20.5286 46.9077L33.3092 33.8941L66.6546 0ZM94.6416 29.1151C91.0934 25.5125 86.4229 23.7112 81.7524 23.7112C77.0818 23.7112 72.4113 25.5125 68.8631 29.1151L66.6908 31.3208L36.097 62.421V84L66.6908 52.8998L79.4714 39.8862C80.0869 39.2613 80.8834 38.9304 81.7524 38.9304C82.6213 38.9304 83.4178 39.2613 84.0333 39.8862C85.3005 41.1729 85.3005 43.2315 84.0333 44.5182L66.6546 62.1637V83.7427L94.6416 55.326C98.0811 51.8337 100 47.165 100 42.239C100 37.2762 98.0811 32.6442 94.6416 29.1151Z" fill="black"/>
</svg>
