<svg width="223" height="31" viewBox="0 0 223 31" fill="none" xmlns="http://www.w3.org/2000/svg">
<path d="M26.424 3.536V26H20.952V12.528L15.928 26H11.512L6.45601 12.496V26H0.984009V3.536H7.44801L13.752 19.088L19.992 3.536H26.424Z" fill="#FDDA16"/>
<path d="M29.271 17.04C29.271 15.2053 29.6123 13.5947 30.295 12.208C30.999 10.8213 31.9483 9.75466 33.143 9.008C34.3377 8.26133 35.671 7.888 37.143 7.888C38.4017 7.888 39.5003 8.144 40.439 8.656C41.399 9.168 42.135 9.84 42.647 10.672V8.144H48.119V26H42.647V23.472C42.1137 24.304 41.367 24.976 40.407 25.488C39.4683 26 38.3697 26.256 37.111 26.256C35.6603 26.256 34.3377 25.8827 33.143 25.136C31.9483 24.368 30.999 23.2907 30.295 21.904C29.6123 20.496 29.271 18.8747 29.271 17.04ZM42.647 17.072C42.647 15.7067 42.263 14.6293 41.495 13.84C40.7483 13.0507 39.831 12.656 38.743 12.656C37.655 12.656 36.727 13.0507 35.959 13.84C35.2123 14.608 34.839 15.6747 34.839 17.04C34.839 18.4053 35.2123 19.4933 35.959 20.304C36.727 21.0933 37.655 21.488 38.743 21.488C39.831 21.488 40.7483 21.0933 41.495 20.304C42.263 19.5147 42.647 18.4373 42.647 17.072Z" fill="#FDDA16"/>
<path d="M62.0298 21.36V26H59.2458C57.2618 26 55.7151 25.52 54.6058 24.56C53.4964 23.5787 52.9418 21.9893 52.9418 19.792V12.688H50.7658V8.144H52.9418V3.792H58.4138V8.144H61.9978V12.688H58.4138V19.856C58.4138 20.3893 58.5418 20.7733 58.7978 21.008C59.0538 21.2427 59.4804 21.36 60.0778 21.36H62.0298Z" fill="#FDDA16"/>
<path d="M81.9098 16.784C81.9098 17.296 81.8778 17.8293 81.8138 18.384H69.4298C69.5151 19.4933 69.8671 20.3467 70.4858 20.944C71.1258 21.52 71.9044 21.808 72.8218 21.808C74.1871 21.808 75.1364 21.232 75.6698 20.08H81.4938C81.1951 21.2533 80.6511 22.3093 79.8618 23.248C79.0938 24.1867 78.1231 24.9227 76.9498 25.456C75.7764 25.9893 74.4644 26.256 73.0138 26.256C71.2644 26.256 69.7071 25.8827 68.3418 25.136C66.9764 24.3893 65.9098 23.3227 65.1418 21.936C64.3738 20.5493 63.9898 18.928 63.9898 17.072C63.9898 15.216 64.3631 13.5947 65.1098 12.208C65.8778 10.8213 66.9444 9.75466 68.3098 9.008C69.6751 8.26133 71.2431 7.888 73.0138 7.888C74.7418 7.888 76.2778 8.25066 77.6218 8.976C78.9658 9.70133 80.0111 10.736 80.7578 12.08C81.5258 13.424 81.9098 14.992 81.9098 16.784ZM76.3098 15.344C76.3098 14.4053 75.9898 13.6587 75.3498 13.104C74.7098 12.5493 73.9098 12.272 72.9498 12.272C72.0324 12.272 71.2538 12.5387 70.6138 13.072C69.9951 13.6053 69.6111 14.3627 69.4618 15.344H76.3098Z" fill="#FDDA16"/>
<path d="M90.2685 11.12C90.9085 10.1387 91.7085 9.37066 92.6685 8.816C93.6285 8.24 94.6952 7.952 95.8685 7.952V13.744H94.3645C92.9992 13.744 91.9752 14.0427 91.2925 14.64C90.6098 15.216 90.2685 16.24 90.2685 17.712V26H84.7965V8.144H90.2685V11.12Z" fill="#FDDA16"/>
<path d="M101.236 6.288C100.276 6.288 99.4867 6.01066 98.868 5.456C98.2707 4.88 97.972 4.176 97.972 3.344C97.972 2.49066 98.2707 1.78666 98.868 1.232C99.4867 0.655996 100.276 0.367996 101.236 0.367996C102.175 0.367996 102.943 0.655996 103.54 1.232C104.159 1.78666 104.468 2.49066 104.468 3.344C104.468 4.176 104.159 4.88 103.54 5.456C102.943 6.01066 102.175 6.288 101.236 6.288ZM103.956 8.144V26H98.484V8.144H103.956Z" fill="#FDDA16"/>
<path d="M106.834 17.04C106.834 15.2053 107.175 13.5947 107.858 12.208C108.562 10.8213 109.511 9.75466 110.706 9.008C111.9 8.26133 113.234 7.888 114.706 7.888C115.964 7.888 117.063 8.144 118.002 8.656C118.962 9.168 119.698 9.84 120.21 10.672V8.144H125.682V26H120.21V23.472C119.676 24.304 118.93 24.976 117.97 25.488C117.031 26 115.932 26.256 114.674 26.256C113.223 26.256 111.9 25.8827 110.706 25.136C109.511 24.368 108.562 23.2907 107.858 21.904C107.175 20.496 106.834 18.8747 106.834 17.04ZM120.21 17.072C120.21 15.7067 119.826 14.6293 119.058 13.84C118.311 13.0507 117.394 12.656 116.306 12.656C115.218 12.656 114.29 13.0507 113.522 13.84C112.775 14.608 112.402 15.6747 112.402 17.04C112.402 18.4053 112.775 19.4933 113.522 20.304C114.29 21.0933 115.218 21.488 116.306 21.488C117.394 21.488 118.311 21.0933 119.058 20.304C119.826 19.5147 120.21 18.4373 120.21 17.072Z" fill="#FDDA16"/>
<path d="M135.112 2.32V26H129.64V2.32H135.112Z" fill="#FDDA16"/>
<path d="M162.019 3.536V7.92H156.067V26H150.595V7.92H144.643V3.536H162.019Z" fill="#FDDA16"/>
<path d="M163.677 17.04C163.677 15.2053 164.019 13.5947 164.701 12.208C165.405 10.8213 166.355 9.75466 167.549 9.008C168.744 8.26133 170.077 7.888 171.549 7.888C172.808 7.888 173.907 8.144 174.845 8.656C175.805 9.168 176.541 9.84 177.053 10.672V8.144H182.525V26H177.053V23.472C176.52 24.304 175.773 24.976 174.813 25.488C173.875 26 172.776 26.256 171.517 26.256C170.067 26.256 168.744 25.8827 167.549 25.136C166.355 24.368 165.405 23.2907 164.701 21.904C164.019 20.496 163.677 18.8747 163.677 17.04ZM177.053 17.072C177.053 15.7067 176.669 14.6293 175.901 13.84C175.155 13.0507 174.237 12.656 173.149 12.656C172.061 12.656 171.133 13.0507 170.365 13.84C169.619 14.608 169.245 15.6747 169.245 17.04C169.245 18.4053 169.619 19.4933 170.365 20.304C171.133 21.0933 172.061 21.488 173.149 21.488C174.237 21.488 175.155 21.0933 175.901 20.304C176.669 19.5147 177.053 18.4373 177.053 17.072Z" fill="#FDDA16"/>
<path d="M191.956 10.672C192.468 9.84 193.204 9.168 194.164 8.656C195.124 8.144 196.223 7.888 197.46 7.888C198.932 7.888 200.265 8.26133 201.46 9.008C202.655 9.75466 203.593 10.8213 204.276 12.208C204.98 13.5947 205.332 15.2053 205.332 17.04C205.332 18.8747 204.98 20.496 204.276 21.904C203.593 23.2907 202.655 24.368 201.46 25.136C200.265 25.8827 198.932 26.256 197.46 26.256C196.201 26.256 195.103 26.0107 194.164 25.52C193.225 25.008 192.489 24.336 191.956 23.504V26H186.484V2.32H191.956V10.672ZM199.764 17.04C199.764 15.6747 199.38 14.608 198.612 13.84C197.865 13.0507 196.937 12.656 195.828 12.656C194.74 12.656 193.812 13.0507 193.044 13.84C192.297 14.6293 191.924 15.7067 191.924 17.072C191.924 18.4373 192.297 19.5147 193.044 20.304C193.812 21.0933 194.74 21.488 195.828 21.488C196.916 21.488 197.844 21.0933 198.612 20.304C199.38 19.4933 199.764 18.4053 199.764 17.04Z" fill="#FDDA16"/>
<path d="M215.467 26.256C213.909 26.256 212.523 25.9893 211.307 25.456C210.091 24.9227 209.131 24.1973 208.427 23.28C207.723 22.3413 207.328 21.296 207.243 20.144H212.651C212.715 20.7627 213.003 21.264 213.515 21.648C214.027 22.032 214.656 22.224 215.403 22.224C216.085 22.224 216.608 22.096 216.971 21.84C217.355 21.5627 217.547 21.2107 217.547 20.784C217.547 20.272 217.28 19.8987 216.747 19.664C216.213 19.408 215.349 19.1307 214.155 18.832C212.875 18.5333 211.808 18.224 210.955 17.904C210.101 17.5627 209.365 17.04 208.747 16.336C208.128 15.6107 207.819 14.64 207.819 13.424C207.819 12.4 208.096 11.472 208.651 10.64C209.227 9.78666 210.059 9.11466 211.147 8.624C212.256 8.13333 213.568 7.888 215.083 7.888C217.323 7.888 219.083 8.44266 220.363 9.552C221.664 10.6613 222.411 12.1333 222.603 13.968H217.547C217.461 13.3493 217.184 12.8587 216.715 12.496C216.267 12.1333 215.669 11.952 214.923 11.952C214.283 11.952 213.792 12.08 213.451 12.336C213.109 12.5707 212.939 12.9013 212.939 13.328C212.939 13.84 213.205 14.224 213.739 14.48C214.293 14.736 215.147 14.992 216.299 15.248C217.621 15.5893 218.699 15.9307 219.531 16.272C220.363 16.592 221.088 17.1253 221.707 17.872C222.347 18.5973 222.677 19.5787 222.699 20.816C222.699 21.8613 222.4 22.8 221.803 23.632C221.227 24.4427 220.384 25.0827 219.275 25.552C218.187 26.0213 216.917 26.256 215.467 26.256Z" fill="#FDDA16"/>
<path d="M0.5 31C0.5 29.8954 1.39543 29 2.5 29H24.95C26.0546 29 26.95 29.8954 26.95 31V31H0.5V31Z" fill="white"/>
</svg>
