<svg width="226" height="48" viewBox="0 0 226 48" fill="none" xmlns="http://www.w3.org/2000/svg">
<path d="M27.424 12.536V35H21.952V21.528L16.928 35H12.512L7.456 21.496V35H1.984V12.536H8.448L14.752 28.088L20.992 12.536H27.424ZM30.271 26.04C30.271 24.2053 30.6123 22.5947 31.295 21.208C31.999 19.8213 32.9483 18.7547 34.143 18.008C35.3377 17.2613 36.671 16.888 38.143 16.888C39.4017 16.888 40.5003 17.144 41.439 17.656C42.399 18.168 43.135 18.84 43.647 19.672V17.144H49.119V35H43.647V32.472C43.1137 33.304 42.367 33.976 41.407 34.488C40.4683 35 39.3697 35.256 38.111 35.256C36.6603 35.256 35.3377 34.8827 34.143 34.136C32.9483 33.368 31.999 32.2907 31.295 30.904C30.6123 29.496 30.271 27.8747 30.271 26.04ZM43.647 26.072C43.647 24.7067 43.263 23.6293 42.495 22.84C41.7483 22.0507 40.831 21.656 39.743 21.656C38.655 21.656 37.727 22.0507 36.959 22.84C36.2123 23.608 35.839 24.6747 35.839 26.04C35.839 27.4053 36.2123 28.4933 36.959 29.304C37.727 30.0933 38.655 30.488 39.743 30.488C40.831 30.488 41.7483 30.0933 42.495 29.304C43.263 28.5147 43.647 27.4373 43.647 26.072ZM63.0298 30.36V35H60.2458C58.2618 35 56.7151 34.52 55.6058 33.56C54.4964 32.5787 53.9418 30.9893 53.9418 28.792V21.688H51.7658V17.144H53.9418V12.792H59.4138V17.144H62.9978V21.688H59.4138V28.856C59.4138 29.3893 59.5418 29.7733 59.7978 30.008C60.0538 30.2427 60.4804 30.36 61.0778 30.36H63.0298ZM82.9097 25.784C82.9097 26.296 82.8778 26.8293 82.8138 27.384H70.4298C70.5151 28.4933 70.8671 29.3467 71.4858 29.944C72.1258 30.52 72.9044 30.808 73.8218 30.808C75.1871 30.808 76.1364 30.232 76.6698 29.08H82.4938C82.1951 30.2533 81.6511 31.3093 80.8618 32.248C80.0938 33.1867 79.1231 33.9227 77.9498 34.456C76.7764 34.9893 75.4644 35.256 74.0138 35.256C72.2644 35.256 70.7071 34.8827 69.3418 34.136C67.9764 33.3893 66.9098 32.3227 66.1418 30.936C65.3738 29.5493 64.9898 27.928 64.9898 26.072C64.9898 24.216 65.3631 22.5947 66.1098 21.208C66.8778 19.8213 67.9444 18.7547 69.3098 18.008C70.6751 17.2613 72.2431 16.888 74.0138 16.888C75.7418 16.888 77.2778 17.2507 78.6218 17.976C79.9658 18.7013 81.0111 19.736 81.7578 21.08C82.5258 22.424 82.9097 23.992 82.9097 25.784ZM77.3098 24.344C77.3098 23.4053 76.9898 22.6587 76.3498 22.104C75.7098 21.5493 74.9098 21.272 73.9498 21.272C73.0324 21.272 72.2538 21.5387 71.6138 22.072C70.9951 22.6053 70.6111 23.3627 70.4618 24.344H77.3098ZM91.2685 20.12C91.9085 19.1387 92.7085 18.3707 93.6685 17.816C94.6285 17.24 95.6952 16.952 96.8685 16.952V22.744H95.3645C93.9992 22.744 92.9752 23.0427 92.2925 23.64C91.6098 24.216 91.2685 25.24 91.2685 26.712V35H85.7965V17.144H91.2685V20.12ZM102.236 15.288C101.276 15.288 100.487 15.0107 99.868 14.456C99.2707 13.88 98.972 13.176 98.972 12.344C98.972 11.4907 99.2707 10.7867 99.868 10.232C100.487 9.656 101.276 9.368 102.236 9.368C103.175 9.368 103.943 9.656 104.54 10.232C105.159 10.7867 105.468 11.4907 105.468 12.344C105.468 13.176 105.159 13.88 104.54 14.456C103.943 15.0107 103.175 15.288 102.236 15.288ZM104.956 17.144V35H99.484V17.144H104.956ZM107.834 26.04C107.834 24.2053 108.175 22.5947 108.858 21.208C109.562 19.8213 110.511 18.7547 111.706 18.008C112.9 17.2613 114.234 16.888 115.706 16.888C116.964 16.888 118.063 17.144 119.002 17.656C119.962 18.168 120.698 18.84 121.21 19.672V17.144H126.682V35H121.21V32.472C120.676 33.304 119.93 33.976 118.97 34.488C118.031 35 116.932 35.256 115.674 35.256C114.223 35.256 112.9 34.8827 111.706 34.136C110.511 33.368 109.562 32.2907 108.858 30.904C108.175 29.496 107.834 27.8747 107.834 26.04ZM121.21 26.072C121.21 24.7067 120.826 23.6293 120.058 22.84C119.311 22.0507 118.394 21.656 117.306 21.656C116.218 21.656 115.29 22.0507 114.522 22.84C113.775 23.608 113.402 24.6747 113.402 26.04C113.402 27.4053 113.775 28.4933 114.522 29.304C115.29 30.0933 116.218 30.488 117.306 30.488C118.394 30.488 119.311 30.0933 120.058 29.304C120.826 28.5147 121.21 27.4373 121.21 26.072ZM136.112 11.32V35H130.64V11.32H136.112ZM163.019 12.536V16.92H157.067V35H151.595V16.92H145.643V12.536H163.019ZM164.677 26.04C164.677 24.2053 165.019 22.5947 165.701 21.208C166.405 19.8213 167.355 18.7547 168.549 18.008C169.744 17.2613 171.077 16.888 172.549 16.888C173.808 16.888 174.907 17.144 175.845 17.656C176.805 18.168 177.541 18.84 178.053 19.672V17.144H183.525V35H178.053V32.472C177.52 33.304 176.773 33.976 175.813 34.488C174.875 35 173.776 35.256 172.517 35.256C171.067 35.256 169.744 34.8827 168.549 34.136C167.355 33.368 166.405 32.2907 165.701 30.904C165.019 29.496 164.677 27.8747 164.677 26.04ZM178.053 26.072C178.053 24.7067 177.669 23.6293 176.901 22.84C176.155 22.0507 175.237 21.656 174.149 21.656C173.061 21.656 172.133 22.0507 171.365 22.84C170.619 23.608 170.245 24.6747 170.245 26.04C170.245 27.4053 170.619 28.4933 171.365 29.304C172.133 30.0933 173.061 30.488 174.149 30.488C175.237 30.488 176.155 30.0933 176.901 29.304C177.669 28.5147 178.053 27.4373 178.053 26.072ZM192.956 19.672C193.468 18.84 194.204 18.168 195.164 17.656C196.124 17.144 197.223 16.888 198.46 16.888C199.932 16.888 201.265 17.2613 202.46 18.008C203.655 18.7547 204.593 19.8213 205.276 21.208C205.98 22.5947 206.332 24.2053 206.332 26.04C206.332 27.8747 205.98 29.496 205.276 30.904C204.593 32.2907 203.655 33.368 202.46 34.136C201.265 34.8827 199.932 35.256 198.46 35.256C197.201 35.256 196.103 35.0107 195.164 34.52C194.225 34.008 193.489 33.336 192.956 32.504V35H187.484V11.32H192.956V19.672ZM200.764 26.04C200.764 24.6747 200.38 23.608 199.612 22.84C198.865 22.0507 197.937 21.656 196.828 21.656C195.74 21.656 194.812 22.0507 194.044 22.84C193.297 23.6293 192.924 24.7067 192.924 26.072C192.924 27.4373 193.297 28.5147 194.044 29.304C194.812 30.0933 195.74 30.488 196.828 30.488C197.916 30.488 198.844 30.0933 199.612 29.304C200.38 28.4933 200.764 27.4053 200.764 26.04ZM216.467 35.256C214.909 35.256 213.523 34.9893 212.307 34.456C211.091 33.9227 210.131 33.1973 209.427 32.28C208.723 31.3413 208.328 30.296 208.243 29.144H213.651C213.715 29.7627 214.003 30.264 214.515 30.648C215.027 31.032 215.656 31.224 216.403 31.224C217.085 31.224 217.608 31.096 217.971 30.84C218.355 30.5627 218.547 30.2107 218.547 29.784C218.547 29.272 218.28 28.8987 217.747 28.664C217.213 28.408 216.349 28.1307 215.155 27.832C213.875 27.5333 212.808 27.224 211.955 26.904C211.101 26.5627 210.365 26.04 209.747 25.336C209.128 24.6107 208.819 23.64 208.819 22.424C208.819 21.4 209.096 20.472 209.651 19.64C210.227 18.7867 211.059 18.1147 212.147 17.624C213.256 17.1333 214.568 16.888 216.083 16.888C218.323 16.888 220.083 17.4427 221.363 18.552C222.664 19.6613 223.411 21.1333 223.603 22.968H218.547C218.461 22.3493 218.184 21.8587 217.715 21.496C217.267 21.1333 216.669 20.952 215.923 20.952C215.283 20.952 214.792 21.08 214.451 21.336C214.109 21.5707 213.939 21.9013 213.939 22.328C213.939 22.84 214.205 23.224 214.739 23.48C215.293 23.736 216.147 23.992 217.299 24.248C218.621 24.5893 219.699 24.9307 220.531 25.272C221.363 25.592 222.088 26.1253 222.707 26.872C223.347 27.5973 223.677 28.5787 223.699 29.816C223.699 30.8613 223.4 31.8 222.803 32.632C222.227 33.4427 221.384 34.0827 220.275 34.552C219.187 35.0213 217.917 35.256 216.467 35.256Z" fill="#FDDA16"/>
<rect x="2" y="38" width="25.45" height="2" fill="white"/>
</svg>
